<mxfile host="app.diagrams.net" modified="2023-11-14T14:52:34.152Z" agent="Mozilla/5.0 (Windows NT 10.0; Win64; x64) AppleWebKit/537.36 (KHTML, like Gecko) Chrome/119.0.0.0 Safari/537.36" etag="wLIZiPFYMJm09-QtNSql" version="22.1.0" type="device">
  <diagram id="Cio9OjLPXT8PBRMxzQun" name="Page-1">
    <mxGraphModel dx="1434" dy="758" grid="1" gridSize="10" guides="1" tooltips="1" connect="1" arrows="1" fold="1" page="1" pageScale="1" pageWidth="827" pageHeight="1169" math="0" shadow="0">
      <root>
        <mxCell id="0" />
        <mxCell id="1" parent="0" />
        <mxCell id="WSM-dIF34S2Pxu8Wa2e9-8" value="" style="rounded=1;whiteSpace=wrap;html=1;fillColor=#f8cecc;strokeColor=#b85450;dashed=1;" parent="1" vertex="1">
          <mxGeometry x="60" y="340" width="540" height="300" as="geometry" />
        </mxCell>
        <mxCell id="WSM-dIF34S2Pxu8Wa2e9-7" value="" style="rounded=1;whiteSpace=wrap;html=1;fillColor=#f8cecc;strokeColor=#b85450;dashed=1;" parent="1" vertex="1">
          <mxGeometry x="50" y="330" width="540" height="300" as="geometry" />
        </mxCell>
        <mxCell id="WSM-dIF34S2Pxu8Wa2e9-5" value="&lt;div&gt;&lt;b&gt;&lt;br&gt;&lt;/b&gt;&lt;/div&gt;&lt;div&gt;&lt;b&gt;&lt;font style=&quot;font-size: 17px&quot;&gt;&amp;nbsp; &amp;nbsp; &amp;nbsp; &amp;nbsp; &amp;nbsp;Web Service&lt;/font&gt;&lt;br&gt;&lt;/b&gt;&lt;/div&gt;&lt;div&gt;&lt;br&gt;&lt;/div&gt;&lt;div&gt;&lt;b&gt;&lt;br&gt;&lt;/b&gt;&lt;/div&gt;&lt;div&gt;&lt;b&gt;&lt;br&gt;&lt;/b&gt;&lt;/div&gt;&lt;div&gt;&lt;b&gt;&lt;br&gt;&lt;/b&gt;&lt;/div&gt;&lt;div&gt;&lt;b&gt;&lt;br&gt;&lt;/b&gt;&lt;/div&gt;&lt;div&gt;&lt;b&gt;&lt;br&gt;&lt;/b&gt;&lt;/div&gt;&lt;div&gt;&lt;b&gt;&lt;br&gt;&lt;/b&gt;&lt;/div&gt;&lt;div&gt;&lt;b&gt;&lt;br&gt;&lt;/b&gt;&lt;/div&gt;&lt;div&gt;&lt;b&gt;&lt;br&gt;&lt;/b&gt;&lt;/div&gt;&lt;div&gt;&lt;b&gt;&lt;br&gt;&lt;/b&gt;&lt;/div&gt;&lt;div&gt;&lt;b&gt;&lt;br&gt;&lt;/b&gt;&lt;/div&gt;&lt;div&gt;&lt;b&gt;&lt;br&gt;&lt;/b&gt;&lt;/div&gt;&lt;div&gt;&lt;b&gt;&lt;br&gt;&lt;/b&gt;&lt;/div&gt;&lt;div&gt;&lt;b&gt;&lt;br&gt;&lt;/b&gt;&lt;/div&gt;&lt;div&gt;&lt;b&gt;&lt;br&gt;&lt;/b&gt;&lt;/div&gt;&lt;div&gt;&lt;b&gt;&lt;br&gt;&lt;/b&gt;&lt;/div&gt;&lt;div&gt;&lt;b&gt;&lt;br&gt;&lt;/b&gt;&lt;/div&gt;&lt;div&gt;&lt;b&gt;&lt;br&gt;&lt;/b&gt;&lt;/div&gt;&lt;div&gt;&lt;br&gt;&lt;/div&gt;&lt;div&gt;&lt;br&gt;&lt;/div&gt;" style="rounded=1;whiteSpace=wrap;html=1;fillColor=#f8cecc;strokeColor=#b85450;" parent="1" vertex="1">
          <mxGeometry x="40" y="320" width="540" height="300" as="geometry" />
        </mxCell>
        <mxCell id="Xv9rt_4161z9yivC7wJb-7" value="&lt;font style=&quot;font-size: 15px&quot;&gt;&lt;b&gt;&amp;nbsp;Nautobot Web App&lt;/b&gt;&lt;br&gt;Django&lt;br&gt;&lt;br&gt;&lt;br&gt;&lt;br&gt;&lt;/font&gt;" style="rounded=1;whiteSpace=wrap;html=1;fillColor=#e1d5e7;strokeColor=#9673a6;" parent="1" vertex="1">
          <mxGeometry x="140" y="410" width="360" height="120" as="geometry" />
        </mxCell>
        <mxCell id="WSM-dIF34S2Pxu8Wa2e9-40" style="rounded=0;orthogonalLoop=1;jettySize=auto;html=1;exitX=0.5;exitY=1;exitDx=0;exitDy=0;entryX=0.25;entryY=0;entryDx=0;entryDy=0;startArrow=classic;startFill=1;" parent="1" source="WSM-dIF34S2Pxu8Wa2e9-1" target="WSM-dIF34S2Pxu8Wa2e9-4" edge="1">
          <mxGeometry relative="1" as="geometry" />
        </mxCell>
        <mxCell id="WSM-dIF34S2Pxu8Wa2e9-1" value="&lt;font style=&quot;font-size: 17px&quot;&gt;Web&lt;font style=&quot;font-size: 17px&quot;&gt; Browser&lt;br&gt;&lt;/font&gt;&lt;/font&gt;" style="rounded=1;whiteSpace=wrap;html=1;fillColor=#fff2cc;strokeColor=#d6b656;" parent="1" vertex="1">
          <mxGeometry x="40" y="80" width="160" height="80" as="geometry" />
        </mxCell>
        <mxCell id="WSM-dIF34S2Pxu8Wa2e9-41" style="rounded=0;orthogonalLoop=1;jettySize=auto;html=1;exitX=0.5;exitY=1;exitDx=0;exitDy=0;entryX=0.5;entryY=0;entryDx=0;entryDy=0;startArrow=classic;startFill=1;" parent="1" source="WSM-dIF34S2Pxu8Wa2e9-2" target="WSM-dIF34S2Pxu8Wa2e9-4" edge="1">
          <mxGeometry relative="1" as="geometry" />
        </mxCell>
        <mxCell id="WSM-dIF34S2Pxu8Wa2e9-2" value="&lt;font style=&quot;font-size: 17px&quot;&gt;REST API Client&lt;/font&gt;" style="rounded=1;whiteSpace=wrap;html=1;fillColor=#fff2cc;strokeColor=#d6b656;" parent="1" vertex="1">
          <mxGeometry x="240" y="80" width="160" height="80" as="geometry" />
        </mxCell>
        <mxCell id="WSM-dIF34S2Pxu8Wa2e9-42" style="rounded=0;orthogonalLoop=1;jettySize=auto;html=1;exitX=0.5;exitY=1;exitDx=0;exitDy=0;startArrow=classic;startFill=1;entryX=0.75;entryY=0;entryDx=0;entryDy=0;" parent="1" source="WSM-dIF34S2Pxu8Wa2e9-3" target="WSM-dIF34S2Pxu8Wa2e9-4" edge="1">
          <mxGeometry relative="1" as="geometry">
            <mxPoint x="320" y="200" as="targetPoint" />
          </mxGeometry>
        </mxCell>
        <mxCell id="WSM-dIF34S2Pxu8Wa2e9-3" value="&lt;font style=&quot;font-size: 17px&quot;&gt;GraphQL Client&lt;/font&gt;" style="rounded=1;whiteSpace=wrap;html=1;fillColor=#fff2cc;strokeColor=#d6b656;" parent="1" vertex="1">
          <mxGeometry x="440" y="80" width="160" height="80" as="geometry" />
        </mxCell>
        <mxCell id="WSM-dIF34S2Pxu8Wa2e9-4" value="&lt;font style=&quot;font-size: 17px&quot;&gt;&lt;b&gt;Load Balancer&lt;/b&gt;&lt;br&gt;NGINX / ALB / etc.&lt;br&gt;&lt;/font&gt;" style="rounded=1;whiteSpace=wrap;html=1;fillColor=#f8cecc;strokeColor=#b85450;" parent="1" vertex="1">
          <mxGeometry x="240" y="200" width="160" height="80" as="geometry" />
        </mxCell>
        <mxCell id="WSM-dIF34S2Pxu8Wa2e9-53" style="rounded=0;orthogonalLoop=1;jettySize=auto;html=1;exitX=0;exitY=0.5;exitDx=0;exitDy=0;startArrow=classic;startFill=1;edgeStyle=orthogonalEdgeStyle;entryX=0.364;entryY=0;entryDx=0;entryDy=0;entryPerimeter=0;" parent="1" source="Xv9rt_4161z9yivC7wJb-7" target="WSM-dIF34S2Pxu8Wa2e9-10" edge="1">
          <mxGeometry relative="1" as="geometry">
            <mxPoint x="500" y="540" as="sourcePoint" />
            <Array as="points">
              <mxPoint x="120" y="470" />
            </Array>
          </mxGeometry>
        </mxCell>
        <mxCell id="WSM-dIF34S2Pxu8Wa2e9-9" value="&lt;font style=&quot;font-size: 17px&quot;&gt;&lt;b&gt;In-Memory&lt;br&gt;Data Store&lt;/b&gt;&lt;br&gt;Redis&lt;br&gt;&lt;/font&gt;&lt;p&gt;&lt;/p&gt;&lt;p&gt;&lt;/p&gt;" style="rounded=1;whiteSpace=wrap;html=1;fillColor=#dae8fc;strokeColor=#6c8ebf;" parent="1" vertex="1">
          <mxGeometry x="265" y="680" width="335" height="110" as="geometry" />
        </mxCell>
        <mxCell id="WSM-dIF34S2Pxu8Wa2e9-10" value="&lt;div style=&quot;font-size: 17px&quot;&gt;&lt;font style=&quot;font-size: 17px&quot;&gt;&lt;b&gt;Relational Database&lt;/b&gt;&lt;/font&gt;&lt;/div&gt;&lt;div style=&quot;font-size: 17px&quot;&gt;&lt;font style=&quot;font-size: 17px&quot;&gt;PostgreSQL /&amp;nbsp;&lt;/font&gt;&lt;span&gt;MySQL&lt;/span&gt;&lt;/div&gt;" style="rounded=1;whiteSpace=wrap;html=1;fillColor=#d5e8d4;strokeColor=#82b366;" parent="1" vertex="1">
          <mxGeometry x="40" y="680" width="220" height="110" as="geometry" />
        </mxCell>
        <mxCell id="WSM-dIF34S2Pxu8Wa2e9-15" value="0 - Queue" style="rounded=1;whiteSpace=wrap;html=1;fillColor=#dae8fc;strokeColor=#6c8ebf;" parent="1" vertex="1">
          <mxGeometry x="275" y="730" width="110" height="40" as="geometry" />
        </mxCell>
        <mxCell id="WSM-dIF34S2Pxu8Wa2e9-16" value="1 - Cache" style="rounded=1;whiteSpace=wrap;html=1;fillColor=#dae8fc;strokeColor=#6c8ebf;" parent="1" vertex="1">
          <mxGeometry x="480" y="730" width="110" height="40" as="geometry" />
        </mxCell>
        <mxCell id="WSM-dIF34S2Pxu8Wa2e9-18" value="Celery" style="rounded=1;whiteSpace=wrap;html=1;fillColor=#f5f5f5;strokeColor=#666666;fontColor=#333333;" parent="1" vertex="1">
          <mxGeometry x="265" y="565" width="110" height="40" as="geometry" />
        </mxCell>
        <mxCell id="WSM-dIF34S2Pxu8Wa2e9-37" value="" style="rounded=1;whiteSpace=wrap;html=1;fillColor=#f5f5f5;strokeColor=#666666;fontColor=#333333;" parent="1" vertex="1">
          <mxGeometry x="180" y="465" width="110" height="40" as="geometry" />
        </mxCell>
        <mxCell id="Xv9rt_4161z9yivC7wJb-17" style="edgeStyle=none;rounded=0;orthogonalLoop=1;jettySize=auto;html=1;startArrow=classic;startFill=1;endArrow=classic;endFill=1;" parent="1" source="WSM-dIF34S2Pxu8Wa2e9-36" target="WSM-dIF34S2Pxu8Wa2e9-39" edge="1">
          <mxGeometry relative="1" as="geometry" />
        </mxCell>
        <mxCell id="WSM-dIF34S2Pxu8Wa2e9-36" value="Nautobot&lt;br&gt;Core" style="rounded=1;whiteSpace=wrap;html=1;fillColor=#f5f5f5;strokeColor=#666666;fontColor=#333333;" parent="1" vertex="1">
          <mxGeometry x="170" y="455" width="110" height="40" as="geometry" />
        </mxCell>
        <mxCell id="WSM-dIF34S2Pxu8Wa2e9-38" value="" style="rounded=1;whiteSpace=wrap;html=1;fillColor=#f5f5f5;strokeColor=#666666;fontColor=#333333;" parent="1" vertex="1">
          <mxGeometry x="370" y="465" width="110" height="40" as="geometry" />
        </mxCell>
        <mxCell id="WSM-dIF34S2Pxu8Wa2e9-39" value="Nautobot&lt;br&gt;Apps" style="rounded=1;whiteSpace=wrap;html=1;fillColor=#f5f5f5;strokeColor=#666666;fontColor=#333333;" parent="1" vertex="1">
          <mxGeometry x="360" y="455" width="110" height="40" as="geometry" />
        </mxCell>
        <mxCell id="Xv9rt_4161z9yivC7wJb-1" style="rounded=0;orthogonalLoop=1;jettySize=auto;html=1;exitX=0.213;exitY=1.025;exitDx=0;exitDy=0;exitPerimeter=0;entryX=0.5;entryY=0;entryDx=0;entryDy=0;startArrow=classic;startFill=1;" parent="1" source="PYgrEcJwf6pXoOG5Tadf-1" target="WSM-dIF34S2Pxu8Wa2e9-36" edge="1">
          <mxGeometry relative="1" as="geometry" />
        </mxCell>
        <mxCell id="Xv9rt_4161z9yivC7wJb-2" style="rounded=0;orthogonalLoop=1;jettySize=auto;html=1;entryX=0.5;entryY=0;entryDx=0;entryDy=0;exitX=0.75;exitY=1;exitDx=0;exitDy=0;startArrow=classic;startFill=1;" parent="1" source="PYgrEcJwf6pXoOG5Tadf-1" target="WSM-dIF34S2Pxu8Wa2e9-39" edge="1">
          <mxGeometry relative="1" as="geometry" />
        </mxCell>
        <mxCell id="PYgrEcJwf6pXoOG5Tadf-1" value="uWSGI / Gunicorn" style="rounded=1;whiteSpace=wrap;html=1;fillColor=#f5f5f5;strokeColor=#666666;fontColor=#333333;" parent="1" vertex="1">
          <mxGeometry x="240" y="350" width="160" height="40" as="geometry" />
        </mxCell>
        <mxCell id="WSM-dIF34S2Pxu8Wa2e9-43" style="edgeStyle=orthogonalEdgeStyle;rounded=0;orthogonalLoop=1;jettySize=auto;html=1;startArrow=classic;startFill=1;" parent="1" source="WSM-dIF34S2Pxu8Wa2e9-4" target="PYgrEcJwf6pXoOG5Tadf-1" edge="1">
          <mxGeometry relative="1" as="geometry" />
        </mxCell>
        <mxCell id="WSM-dIF34S2Pxu8Wa2e9-25" value="" style="rounded=1;whiteSpace=wrap;html=1;fillColor=#ffe6cc;strokeColor=#d79b00;dashed=1;" parent="1" vertex="1">
          <mxGeometry x="60" y="850" width="540" height="250" as="geometry" />
        </mxCell>
        <mxCell id="WSM-dIF34S2Pxu8Wa2e9-24" value="" style="rounded=1;whiteSpace=wrap;html=1;fillColor=#ffe6cc;strokeColor=#d79b00;dashed=1;" parent="1" vertex="1">
          <mxGeometry x="50" y="840" width="540" height="250" as="geometry" />
        </mxCell>
        <mxCell id="WSM-dIF34S2Pxu8Wa2e9-11" value="&lt;div&gt;&lt;b&gt;&lt;br&gt;&lt;/b&gt;&lt;/div&gt;&lt;div&gt;&lt;b&gt;&lt;br&gt;&lt;/b&gt;&lt;/div&gt;&lt;div&gt;&lt;b&gt;&lt;br&gt;&lt;/b&gt;&lt;/div&gt;&lt;div&gt;&lt;b&gt;&lt;br&gt;&lt;/b&gt;&lt;/div&gt;&lt;div&gt;&lt;b&gt;&lt;br&gt;&lt;/b&gt;&lt;/div&gt;&lt;div&gt;&lt;b&gt;&lt;font style=&quot;font-size: 17px&quot;&gt;Nautobot&lt;/font&gt;&lt;/b&gt;&lt;/div&gt;&lt;div&gt;&lt;b&gt;&lt;font style=&quot;font-size: 17px&quot;&gt;Task Worker&lt;/font&gt;&lt;/b&gt;&lt;/div&gt;&lt;div&gt;&lt;b&gt;&lt;br&gt;&lt;/b&gt;&lt;/div&gt;&lt;div&gt;&lt;b&gt;&lt;br&gt;&lt;/b&gt;&lt;/div&gt;&lt;div&gt;&lt;b&gt;&lt;br&gt;&lt;/b&gt;&lt;/div&gt;&lt;div&gt;&lt;b&gt;&lt;br&gt;&lt;/b&gt;&lt;/div&gt;&lt;div&gt;&lt;b&gt;&lt;br&gt;&lt;/b&gt;&lt;/div&gt;&lt;div&gt;&lt;b&gt;&lt;br&gt;&lt;/b&gt;&lt;/div&gt;&lt;div&gt;&lt;b&gt;&lt;br&gt;&lt;/b&gt;&lt;/div&gt;&lt;div&gt;&lt;b&gt;&lt;br&gt;&lt;/b&gt;&lt;/div&gt;&lt;div&gt;&lt;b&gt;&lt;br&gt;&lt;/b&gt;&lt;/div&gt;&lt;div&gt;&lt;b&gt;&lt;br&gt;&lt;/b&gt;&lt;/div&gt;&lt;div&gt;&lt;b&gt;&lt;br&gt;&lt;/b&gt;&lt;/div&gt;&lt;div&gt;&lt;b&gt;&lt;br&gt;&lt;/b&gt;&lt;/div&gt;&lt;div&gt;&lt;b&gt;&lt;br&gt;&lt;/b&gt;&lt;/div&gt;&lt;div&gt;&lt;b&gt;&lt;br&gt;&lt;/b&gt;&lt;/div&gt;&lt;div&gt;&lt;b&gt;&lt;br&gt;&lt;/b&gt;&lt;/div&gt;&lt;div&gt;&lt;b&gt;&lt;br&gt;&lt;/b&gt;&lt;/div&gt;&lt;div&gt;&lt;b&gt;&lt;br&gt;&lt;/b&gt;&lt;/div&gt;&lt;div&gt;&lt;b&gt;&lt;br&gt;&lt;/b&gt;&lt;/div&gt;&lt;div&gt;&lt;br&gt;&lt;/div&gt;" style="rounded=1;whiteSpace=wrap;html=1;fillColor=#ffe6cc;strokeColor=#d79b00;" parent="1" vertex="1">
          <mxGeometry x="40" y="830" width="540" height="250" as="geometry" />
        </mxCell>
        <mxCell id="WSM-dIF34S2Pxu8Wa2e9-17" value="&lt;font style=&quot;font-size: 15px&quot;&gt;Django&lt;br&gt;&lt;/font&gt;&lt;p style=&quot;line-height: 160%&quot;&gt;&lt;br&gt;&lt;/p&gt;&lt;p&gt;&lt;/p&gt;&lt;p&gt;&lt;/p&gt;&lt;div&gt;&lt;br&gt;&lt;/div&gt;&lt;div&gt;&lt;br&gt;&lt;/div&gt;" style="rounded=1;whiteSpace=wrap;html=1;fillColor=#e1d5e7;strokeColor=#9673a6;" parent="1" vertex="1">
          <mxGeometry x="120" y="950" width="380" height="110" as="geometry" />
        </mxCell>
        <mxCell id="WSM-dIF34S2Pxu8Wa2e9-21" value="" style="rounded=1;whiteSpace=wrap;html=1;fillColor=#f5f5f5;strokeColor=#666666;fontColor=#333333;" parent="1" vertex="1">
          <mxGeometry x="190" y="1000" width="110" height="40" as="geometry" />
        </mxCell>
        <mxCell id="WSM-dIF34S2Pxu8Wa2e9-20" value="Nautobot&lt;br&gt;Core" style="rounded=1;whiteSpace=wrap;html=1;fillColor=#f5f5f5;strokeColor=#666666;fontColor=#333333;" parent="1" vertex="1">
          <mxGeometry x="180" y="990" width="110" height="40" as="geometry" />
        </mxCell>
        <mxCell id="WSM-dIF34S2Pxu8Wa2e9-23" value="" style="rounded=1;whiteSpace=wrap;html=1;fillColor=#f5f5f5;strokeColor=#666666;fontColor=#333333;" parent="1" vertex="1">
          <mxGeometry x="330" y="1000" width="110" height="40" as="geometry" />
        </mxCell>
        <mxCell id="Xv9rt_4161z9yivC7wJb-22" style="edgeStyle=orthogonalEdgeStyle;rounded=0;orthogonalLoop=1;jettySize=auto;html=1;startArrow=classic;startFill=1;endArrow=classic;endFill=1;" parent="1" source="WSM-dIF34S2Pxu8Wa2e9-22" target="WSM-dIF34S2Pxu8Wa2e9-20" edge="1">
          <mxGeometry relative="1" as="geometry" />
        </mxCell>
        <mxCell id="WSM-dIF34S2Pxu8Wa2e9-22" value="Nautobot Apps" style="rounded=1;whiteSpace=wrap;html=1;fillColor=#f5f5f5;strokeColor=#666666;fontColor=#333333;" parent="1" vertex="1">
          <mxGeometry x="320" y="990" width="110" height="40" as="geometry" />
        </mxCell>
        <mxCell id="Xv9rt_4161z9yivC7wJb-30" style="edgeStyle=none;rounded=0;orthogonalLoop=1;jettySize=auto;html=1;entryX=0.25;entryY=0;entryDx=0;entryDy=0;startArrow=classic;startFill=1;endArrow=classic;endFill=1;exitX=0.25;exitY=1;exitDx=0;exitDy=0;" parent="1" source="WSM-dIF34S2Pxu8Wa2e9-34" target="WSM-dIF34S2Pxu8Wa2e9-20" edge="1">
          <mxGeometry relative="1" as="geometry" />
        </mxCell>
        <mxCell id="Xv9rt_4161z9yivC7wJb-31" style="rounded=0;orthogonalLoop=1;jettySize=auto;html=1;entryX=0.5;entryY=0;entryDx=0;entryDy=0;startArrow=classic;startFill=1;endArrow=classic;endFill=1;exitX=0.75;exitY=1;exitDx=0;exitDy=0;" parent="1" source="WSM-dIF34S2Pxu8Wa2e9-34" target="WSM-dIF34S2Pxu8Wa2e9-22" edge="1">
          <mxGeometry relative="1" as="geometry" />
        </mxCell>
        <mxCell id="WSM-dIF34S2Pxu8Wa2e9-34" value="Celery" style="rounded=1;whiteSpace=wrap;html=1;fillColor=#f5f5f5;strokeColor=#666666;fontColor=#333333;" parent="1" vertex="1">
          <mxGeometry x="180" y="880" width="110" height="40" as="geometry" />
        </mxCell>
        <mxCell id="WSM-dIF34S2Pxu8Wa2e9-55" style="rounded=0;orthogonalLoop=1;jettySize=auto;html=1;entryX=0.5;entryY=0;entryDx=0;entryDy=0;startArrow=classic;startFill=1;endArrow=classic;endFill=1;exitX=0.2;exitY=1.05;exitDx=0;exitDy=0;exitPerimeter=0;" parent="1" source="WSM-dIF34S2Pxu8Wa2e9-15" target="WSM-dIF34S2Pxu8Wa2e9-34" edge="1">
          <mxGeometry relative="1" as="geometry">
            <mxPoint x="228" y="770" as="sourcePoint" />
          </mxGeometry>
        </mxCell>
        <mxCell id="WSM-dIF34S2Pxu8Wa2e9-47" style="rounded=0;orthogonalLoop=1;jettySize=auto;html=1;startArrow=classic;startFill=1;entryX=0.097;entryY=0;entryDx=0;entryDy=0;exitX=0.532;exitY=1;exitDx=0;exitDy=0;entryPerimeter=0;exitPerimeter=0;" parent="1" source="WSM-dIF34S2Pxu8Wa2e9-10" target="WSM-dIF34S2Pxu8Wa2e9-17" edge="1">
          <mxGeometry relative="1" as="geometry" />
        </mxCell>
        <mxCell id="Xv9rt_4161z9yivC7wJb-6" style="rounded=0;orthogonalLoop=1;jettySize=auto;html=1;entryX=0.75;entryY=0;entryDx=0;entryDy=0;exitX=0.5;exitY=1;exitDx=0;exitDy=0;startArrow=classic;startFill=1;jumpStyle=arc;" parent="1" source="WSM-dIF34S2Pxu8Wa2e9-39" target="WSM-dIF34S2Pxu8Wa2e9-18" edge="1">
          <mxGeometry relative="1" as="geometry" />
        </mxCell>
        <mxCell id="2oaqe7sOrHHWrCuC7LYu-1" style="rounded=0;orthogonalLoop=1;jettySize=auto;html=1;exitX=0.5;exitY=1;exitDx=0;exitDy=0;startArrow=classic;startFill=1;entryX=0.112;entryY=0.008;entryDx=0;entryDy=0;entryPerimeter=0;" parent="1" source="WSM-dIF34S2Pxu8Wa2e9-18" edge="1">
          <mxGeometry relative="1" as="geometry">
            <mxPoint x="319.99999999999994" y="598.9999999999999" as="sourcePoint" />
            <mxPoint x="320.0199999999999" y="729.9999999999999" as="targetPoint" />
          </mxGeometry>
        </mxCell>
        <mxCell id="2oaqe7sOrHHWrCuC7LYu-3" style="rounded=0;orthogonalLoop=1;jettySize=auto;html=1;startArrow=classic;startFill=1;exitX=0.5;exitY=1;exitDx=0;exitDy=0;entryX=0.25;entryY=0;entryDx=0;entryDy=0;" parent="1" edge="1" target="WSM-dIF34S2Pxu8Wa2e9-18" source="WSM-dIF34S2Pxu8Wa2e9-36">
          <mxGeometry relative="1" as="geometry">
            <mxPoint x="194.64" y="495" as="sourcePoint" />
            <mxPoint x="194.4999999999999" y="559.6800000000001" as="targetPoint" />
          </mxGeometry>
        </mxCell>
        <mxCell id="KWHu3iRMJBRjGWgxIFIk-1" style="rounded=0;orthogonalLoop=1;jettySize=auto;html=1;startArrow=classic;startFill=1;edgeStyle=orthogonalEdgeStyle;entryX=0.5;entryY=0;entryDx=0;entryDy=0;" edge="1" parent="1" source="Xv9rt_4161z9yivC7wJb-7" target="WSM-dIF34S2Pxu8Wa2e9-16">
          <mxGeometry relative="1" as="geometry">
            <mxPoint x="750" y="470" as="sourcePoint" />
            <Array as="points">
              <mxPoint x="535" y="470" />
            </Array>
            <mxPoint x="730" y="680" as="targetPoint" />
          </mxGeometry>
        </mxCell>
      </root>
    </mxGraphModel>
  </diagram>
</mxfile>
